<?xml version="1.0" encoding="iso-8859-1"?>
<!-- Uploaded to: SVG Repo, www.svgrepo.com, Generator: SVG Repo Mixer Tools -->
<svg fill="#000000" height="800px" width="800px" version="1.1" id="Layer_1" xmlns="http://www.w3.org/2000/svg" xmlns:xlink="http://www.w3.org/1999/xlink" 
	 viewBox="0 0 512 512" xml:space="preserve">
<g>
	<g>
		<path d="M386.379,336.039c0.304,3.623,0.465,7.284,0.465,10.983c0,37.921-16.22,72.118-42.081,96.038l7.921,5.739
			c5.753,4.168,12.503,6.326,19.385,6.326c3.138,0,6.306-0.449,9.415-1.362c9.908-2.908,17.745-10.084,21.502-19.69
			C416.193,400.311,409.194,362.7,386.379,336.039z"/>
	</g>
</g>
<g>
	<g>
		<path d="M125.156,347.022c0-3.699,0.163-7.36,0.464-10.983c-22.814,26.66-29.812,64.272-16.608,98.032
			c3.758,9.606,11.594,16.782,21.502,19.69c3.11,0.914,6.277,1.362,9.415,1.362c6.882,0,13.634-2.158,19.385-6.326l7.921-5.739
			C141.376,419.141,125.156,384.943,125.156,347.022z"/>
	</g>
</g>
<g>
	<g>
		<path d="M398.222,210.489c0-72.424-54.418-132.375-124.512-141.121c2.012-7.186,8.603-12.479,16.423-12.479h11.378V22.756h-11.378
			c-8.12,0-15.799,1.908-22.627,5.286C259.038,11.42,241.767,0,221.867,0h-11.378v34.133h11.378c9.411,0,17.067,7.656,17.067,17.067
			v18.094c-70.403,8.458-125.156,68.549-125.156,141.195c0,43.172,19.341,81.909,49.807,108.013
			c-2.79,9.019-4.296,18.597-4.296,28.521c0,36.679,20.524,68.652,50.691,85.042l-3.817,45.802h-18.43V512h49.837l5.761-69.123
			c4.148,0.546,8.372,0.857,12.669,0.857c4.297,0,8.52-0.311,12.669-0.857L274.43,512h49.837v-34.133h-18.43l-3.816-45.802
			c30.166-16.39,50.69-48.364,50.69-85.042c0-9.924-1.508-19.502-4.296-28.521C378.881,292.398,398.222,253.661,398.222,210.489z
			 M199.111,221.867c-9.425,0-17.067-7.641-17.067-17.067s7.641-17.067,17.067-17.067c9.425,0,17.067,7.641,17.067,17.067
			S208.537,221.867,199.111,221.867z M256,290.133l-28.444-18.963c0-15.709,12.734-28.444,28.444-28.444
			c15.709,0,28.444,12.735,28.444,28.444L256,290.133z M312.889,221.867c-9.425,0-17.067-7.641-17.067-17.067
			s7.641-17.067,17.067-17.067s17.067,7.641,17.067,17.067S322.314,221.867,312.889,221.867z"/>
	</g>
</g>
</svg>